<?xml version="1.0" encoding="utf-8"?>
<!-- Generator: Adobe Illustrator 23.0.6, SVG Export Plug-In . SVG Version: 6.00 Build 0)  -->
<svg version="1.1" id="Calque_1" xmlns="http://www.w3.org/2000/svg" xmlns:xlink="http://www.w3.org/1999/xlink" x="0px" y="0px"
	 viewBox="0 0 318.99 81.65" style="enable-background:new 0 0 318.99 81.65;" xml:space="preserve">
<style type="text/css">
	.st0{fill:#052313;}
	.st1{fill:#1D1D1B;}
	.st2{fill:none;stroke:#1D1D1B;stroke-width:2;}
	.st3{fill:#FFFFFF;}
	.st4{fill:#FF402B;}
	.st5{fill:#012B13;}
	.st6{fill:none;stroke:#1D1D1B;stroke-miterlimit:10;}
	.st7{fill:#002B12;}
	.st8{fill:#003315;}
</style>
<g>
	<g>
		<path class="st8" d="M72.87,28.24H51.91l0.79,1.44v43.13H36.79V29.68l0.86-1.44H16.63V14.49h56.24V28.24z"/>
		<path class="st8" d="M142.49,72.81h-17.86l-8.5-15.48c-1.94-3.53-4.61-5.18-10.87-5.18H95.25l1.44,1.44v19.23H80.78V14.49h30.1
			c15.55,0,24.12,6.62,24.12,18.15c0,5.83-4.1,11.45-9.72,14.04v0.14c2.23,0.86,4.39,2.88,5.76,5.47L142.49,72.81z M110.88,28.24
			H95.25l1.44,1.44v8.28l-1.44,1.44h14.83c6.77,0,8.78-2.3,8.78-5.54C118.87,30.69,116.71,28.24,110.88,28.24z"/>
		<path class="st8" d="M216,14.49l-28.01,34.56v23.76h-15.99V49.05l-28.08-34.56h19.95l12.67,16.27l3.31,5.69H180l3.31-5.69
			l12.82-16.27H216z"/>
		<path class="st8" d="M278.53,53.66h-16.63l1.44,1.44v17.71h-15.91V14.49h31.18c15.05,0,23.76,7.99,23.76,19.59
			C302.36,45.23,293.65,53.66,278.53,53.66z M278.6,28.24h-16.71l1.44,1.44v8.71l-1.44,1.44h16.63c5.98,0,7.7-2.45,7.7-5.76
			C286.23,30.54,284.58,28.24,278.6,28.24z"/>
	</g>
	<path class="st4" d="M233.08,22.55l-5.54,8.02l-5.54-8.02c-1.18-1.71-1.18-3.98,0-5.69l5.54-8.02l5.54,8.02
		C234.26,18.58,234.26,20.84,233.08,22.55z"/>
</g>
</svg>
