<?xml version="1.0" encoding="utf-8"?>
<!-- Generator: Adobe Illustrator 23.0.6, SVG Export Plug-In . SVG Version: 6.00 Build 0)  -->
<svg version="1.1" id="Calque_1" xmlns="http://www.w3.org/2000/svg" xmlns:xlink="http://www.w3.org/1999/xlink" x="0px" y="0px"
	 viewBox="0 0 1366 768" style="enable-background:new 0 0 1366 768;" xml:space="preserve">
<style type="text/css">
	.st0{fill:#052313;}
	.st1{fill:#1D1D1B;}
	.st2{fill:none;stroke:#1D1D1B;stroke-width:2;}
	.st3{fill:#FFFFFF;}
	.st4{fill:#FF402B;}
	.st5{fill:#012B13;}
	.st6{fill:none;stroke:#1D1D1B;stroke-miterlimit:10;}
	.st7{fill:none;}
	.st8{fill:#002B12;}
	.st9{fill:#003315;}
	.st10{fill:#EDEFED;}
	.st11{fill:#FCE0DC;}
</style>
<path class="st0" d="M774.7,1200.7h325.7c35.1,0,63.6-31.8,63.6-70.9c0-39.2-28.5-70.9-63.6-70.9H774.7c-35.1,0-63.6,31.8-63.6,70.9
	S739.6,1200.7,774.7,1200.7"/>
<path class="st1" d="M1585.9,156h-1.4v-2.2h1.4c1,0,1.4,0.4,1.4,1.1C1587.3,155.6,1586.9,156,1585.9,156 M1586.4,151.5h-4.9v9.9h3.1
	v-3.3h1.9c2.6,0,4-1.1,4-3.2C1590.4,152.7,1589,151.5,1586.4,151.5 M1573.1,151.5h-3.1l-1.2,2.5l-0.7,1.7l-0.7-1.7l-1.2-2.5h-3.1
	l3.5,6.4v3.5h3.1v-3.5L1573.1,151.5z M1555.7,153.8h1.5c1,0,1.4,0.3,1.4,1.1c0,0.8-0.4,1.1-1.4,1.1h-1.5V153.8z M1558.9,161.4h3.3
	l-2.4-3.8c1.2-0.5,1.8-1.4,1.8-2.9c0-2.1-1.3-3.2-3.9-3.2h-5.1v9.9h3V158h1.2L1558.9,161.4z M1550.1,151.5h-9.4v2.3h3.2v7.6h3.1
	v-7.6h3.2L1550.1,151.5L1550.1,151.5z"/>
<polyline class="st2" points="1576.2,156.6 1577.7,154.3 1576.2,152.1 "/>
<g>
	<path class="st3" d="M1062.5,1131h-8.7v-14.1h8.7c6.3,0,9.1,2.3,9.1,7.1C1071.6,1128.7,1068.8,1131,1062.5,1131 M1065.7,1102.7
		h-31.3v63h19.5v-20.9h11.8c16.6,0,25.5-7.3,25.5-20.6C1091.1,1110,1082.3,1102.7,1065.7,1102.7 M990,1102.7h-19.4l-7.7,15.7
		l-4.6,11l-4.7-11l-7.6-15.7h-19.8l22.1,40.7v22.3h19.5v-22.3L990,1102.7z M879.5,1116.9h9.5c6.3,0,8.8,2,8.8,6.9s-2.5,6.8-8.8,6.8
		h-9.5V1116.9z M899.6,1165.7h21.3l-15.4-24c7.7-3.1,11.7-9.2,11.7-18.4c0-13.6-8.6-20.6-24.6-20.6h-32.2v63h19.1v-21.9h7.9
		L899.6,1165.7z M843.8,1102.7H784v14.6h20.2v48.4h19.5v-48.4h20L843.8,1102.7L843.8,1102.7z"/>
	<g>
		<polygon class="st4" points="1008.8,1123.9 993.6,1123.9 1002.8,1108.9 993.6,1093.9 1008.8,1093.9 1018,1108.9 		"/>
	</g>
</g>
<path class="st0" d="M774.7,1022.9h325.7c35.1,0,63.6-31.8,63.6-71s-28.5-71-63.6-71H774.7c-35.1,0-63.6,31.8-63.6,71
	S739.6,1022.9,774.7,1022.9"/>
<path class="st5" d="M45.8-568.5H2557c29.3,0,53.1-28.5,53.1-63.8S2586.4-696,2557-696H45.8c-29.3,0-53.1,28.5-53.1,63.8
	C-7.3-597,16.5-568.5,45.8-568.5"/>
<g>
	<path class="st3" d="M1062.5,953.2h-8.7V939h8.7c6.3,0,9.1,2.3,9.1,7.1C1071.6,950.9,1068.8,953.2,1062.5,953.2 M1065.7,924.8
		h-31.3v63h19.5v-20.9h11.8c16.6,0,25.5-7.3,25.5-20.6C1091.1,932.2,1082.3,924.8,1065.7,924.8 M990,924.8h-19.4l-7.7,15.7l-4.6,11
		l-4.7-11l-7.6-15.7h-19.8l22.1,40.7v22.3h19.5v-22.3L990,924.8z M879.5,939h9.5c6.3,0,8.8,2,8.8,6.9s-2.5,6.8-8.8,6.8h-9.5V939z
		 M899.6,987.8h21.3l-15.4-24c7.7-3,11.7-9.2,11.7-18.4c0-13.5-8.6-20.6-24.6-20.6h-32.2v63h19.1v-21.9h7.9L899.6,987.8z
		 M843.8,924.8H784v14.6h20.2v48.4h19.5v-48.4h20L843.8,924.8L843.8,924.8z"/>
	<g>
		<polygon class="st4" points="1008.8,946.1 993.6,946.1 1002.8,931.1 993.6,916.1 1008.8,916.1 1018,931.1 		"/>
	</g>
</g>
<path class="st6" d="M1328.4,1019.9h325.8c35.1,0,63.6-28.5,63.6-63.6s-28.5-63.6-63.6-63.6h-325.8c-35.1,0-63.6,28.5-63.6,63.6
	C1264.8,991.4,1293.3,1019.9,1328.4,1019.9"/>
<g>
	<path class="st1" d="M1616.2,957.5h-8.7v-14.1h8.7c6.3,0,9.1,2.3,9.1,7.1C1625.3,955.2,1622.5,957.5,1616.2,957.5 M1619.4,929.2
		h-31.3v63h19.5v-20.9h11.8c16.6,0,25.5-7.3,25.5-20.6C1644.8,936.5,1636,929.2,1619.4,929.2 M1543.7,929.2h-19.4l-7.7,15.7l-4.6,11
		l-4.7-11l-7.6-15.7h-19.8l22.1,40.7v22.3h19.6v-22.3L1543.7,929.2z M1433.2,943.4h9.5c6.3,0,8.8,2,8.8,6.9s-2.5,6.8-8.8,6.8h-9.5
		V943.4z M1453.3,992.2h21.3l-15.4-24c7.7-3,11.7-9.2,11.7-18.4c0-13.5-8.6-20.6-24.6-20.6h-32.2v63h19.1v-21.9h7.9L1453.3,992.2z
		 M1397.5,929.2h-59.7v14.6h20.2v48.4h19.5v-48.4h20L1397.5,929.2L1397.5,929.2z"/>
	<g>
		<polygon class="st4" points="1562.5,950.5 1547.3,950.5 1556.5,935.5 1547.3,920.4 1562.5,920.5 1571.7,935.5 		"/>
	</g>
</g>
<rect x="1540.7" y="294.2" class="st7" width="132.6" height="144.6"/>
<text transform="matrix(1 0 0 1 1540.7325 416.3174)" style="font-family:'BluuNext-Bold'; font-size:172px;">‘</text>
<rect x="1709.4" y="237.1" class="st7" width="132.6" height="144.6"/>
<text transform="matrix(1 0 0 1 1709.3948 359.2321)" style="font-family:'BluuNext-Bold'; font-size:172px;">‘</text>
<text transform="matrix(1 0 0 1 271.4943 1021.5852)" style="font-family:'SinkinSans-900XBlack'; font-size:72px;">TRY’P</text>
<path class="st8" d="M444.3,443.3H190.8c-12.5,0-22.6-10.1-22.6-22.6V360c0-12.5,10.1-22.6,22.6-22.6h253.5
	c12.5,0,22.6,10.1,22.6,22.6v60.7C467,433.2,456.8,443.3,444.3,443.3z"/>
<g>
	<g>
		<path class="st3" d="M257.7,381.9h-14.5l0.6,1v29.8h-11v-29.8l0.6-1h-14.5v-9.5h38.9L257.7,381.9L257.7,381.9z"/>
		<path class="st3" d="M305.8,412.8h-12.4l-5.9-10.7c-1.3-2.4-3.2-3.6-7.5-3.6h-6.9l1,1v13.3h-11v-40.3h20.8
			c10.8,0,16.7,4.6,16.7,12.5c0,4-2.8,7.9-6.7,9.7v0.1c1.5,0.6,3,2,4,3.8L305.8,412.8z M284,381.9h-10.8l1,1v5.7l-1,1h10.3
			c4.7,0,6.1-1.6,6.1-3.8C289.5,383.6,288,381.9,284,381.9z"/>
		<path class="st3" d="M356.6,372.4l-19.4,23.9v16.4h-11v-16.4l-19.4-23.9h13.8l8.8,11.2l2.3,3.9h0.1l2.3-3.9l8.9-11.2H356.6z"/>
		<path class="st3" d="M399.9,399.5h-11.5l1,1v12.2h-11v-40.3h21.6c10.4,0,16.4,5.5,16.4,13.5C416.4,393.7,410.3,399.5,399.9,399.5z
			 M399.9,381.9h-11.5l1,1v6l-1,1h11.5c4.1,0,5.3-1.7,5.3-4C405.2,383.5,404.1,381.9,399.9,381.9z"/>
	</g>
	<path class="st4" d="M368.5,378l-3.8,5.5l-3.8-5.5c-0.8-1.2-0.8-2.8,0-3.9l3.8-5.5l3.8,5.5C369.3,375.2,369.3,376.8,368.5,378z"/>
</g>
<rect x="656.1" y="535.6" class="st8" width="432.1" height="153.3"/>
<g>
	<g>
		<path class="st3" d="M785.6,600.1h-21l0.8,1.4v43.1h-15.9v-43.1l0.9-1.4h-21v-13.8h56.2L785.6,600.1L785.6,600.1z"/>
		<path class="st3" d="M855.2,644.6h-17.9l-8.5-15.5c-1.9-3.5-4.6-5.2-10.9-5.2h-10l1.4,1.4v19.2h-15.9v-58.3h30.1
			c15.5,0,24.1,6.6,24.1,18.2c0,5.8-4.1,11.5-9.7,14v0.1c2.2,0.9,4.4,2.9,5.8,5.5L855.2,644.6z M823.6,600.1h-15.6l1.4,1.4v8.3
			l-1.4,1.4h14.8c6.8,0,8.8-2.3,8.8-5.5C831.6,602.5,829.4,600.1,823.6,600.1z"/>
		<path class="st3" d="M928.7,586.3l-28,34.6v23.8h-16v-23.8l-28.1-34.6h20l12.7,16.3l3.3,5.7h0.1l3.3-5.7l12.8-16.3H928.7z"/>
		<path class="st3" d="M991.2,625.5h-16.6l1.4,1.4v17.7h-15.9v-58.3h31.2c15,0,23.8,8,23.8,19.6
			C1015.1,617.1,1006.3,625.5,991.2,625.5z M991.3,600.1h-16.7l1.4,1.4v8.7l-1.4,1.4h16.6c6,0,7.7-2.5,7.7-5.8
			C998.9,602.4,997.3,600.1,991.3,600.1z"/>
	</g>
	<path class="st4" d="M945.8,594.4l-5.5,8l-5.5-8c-1.2-1.7-1.2-4,0-5.7l5.5-8l5.5,8C947,590.4,947,592.7,945.8,594.4z"/>
</g>
<ellipse class="st8" cx="317.6" cy="203.8" rx="135.7" ry="75.9"/>
<g>
	<g>
		<path class="st9" d="M1519.6-167.9h-20.9l0.8,1.4v43.1h-15.9v-43.1l0.9-1.4h-21v-13.8h56.2V-167.9z"/>
		<path class="st9" d="M1589.2-123.3h-17.9l-8.5-15.5c-1.9-3.5-4.6-5.2-10.9-5.2h-10l1.4,1.4v19.2h-15.9v-58.3h30.1
			c15.6,0,24.1,6.6,24.1,18.1c0,5.8-4.1,11.4-9.7,14v0.1c2.2,0.9,4.4,2.9,5.8,5.5L1589.2-123.3z M1557.6-167.9H1542l1.4,1.4v8.3
			l-1.4,1.4h14.8c6.8,0,8.8-2.3,8.8-5.5C1565.6-165.5,1563.4-167.9,1557.6-167.9z"/>
		<path class="st9" d="M1662.7-181.7l-28,34.6v23.8h-16v-23.8l-28.1-34.6h19.9l12.7,16.3l3.3,5.7h0.1l3.3-5.7l12.8-16.3H1662.7z"/>
		<path class="st9" d="M1725.3-142.5h-16.6l1.4,1.4v17.7h-15.9v-58.3h31.2c15.1,0,23.8,8,23.8,19.6
			C1749.1-150.9,1740.4-142.5,1725.3-142.5z M1725.3-167.9h-16.7l1.4,1.4v8.7l-1.4,1.4h16.6c6,0,7.7-2.4,7.7-5.8
			C1733-165.6,1731.3-167.9,1725.3-167.9z"/>
	</g>
	<path class="st4" d="M1679.8-173.6l-5.5,8l-5.5-8c-1.2-1.7-1.2-4,0-5.7l5.5-8l5.5,8C1681-177.6,1681-175.3,1679.8-173.6z"/>
</g>
<g>
	<g>
		<path class="st3" d="M257.7,193.1h-14.5l0.6,1v29.8h-11v-29.8l0.6-1h-14.5v-9.5h38.9L257.7,193.1L257.7,193.1z"/>
		<path class="st3" d="M305.8,223.9h-12.4l-5.9-10.7c-1.3-2.4-3.2-3.6-7.5-3.6h-6.9l1,1v13.3h-11v-40.3h20.8
			c10.8,0,16.7,4.6,16.7,12.6c0,4-2.8,7.9-6.7,9.7v0.1c1.5,0.6,3,2,4,3.8L305.8,223.9z M284,193.1h-10.8l1,1v5.7l-1,1h10.3
			c4.7,0,6.1-1.6,6.1-3.8C289.5,194.8,288,193.1,284,193.1z"/>
		<path class="st3" d="M356.6,183.6l-19.4,23.9v16.4h-11v-16.4l-19.4-23.9h13.8l8.8,11.2l2.3,3.9h0.1l2.3-3.9l8.9-11.2H356.6z"/>
		<path class="st3" d="M399.9,210.7h-11.5l1,1v12.2h-11v-40.3h21.6c10.4,0,16.4,5.5,16.4,13.5C416.4,204.9,410.3,210.7,399.9,210.7z
			 M399.9,193.1h-11.5l1,1v6l-1,1h11.5c4.1,0,5.3-1.7,5.3-4C405.2,194.7,404.1,193.1,399.9,193.1z"/>
	</g>
	<path class="st4" d="M368.5,189.2l-3.8,5.6l-3.8-5.6c-0.8-1.2-0.8-2.8,0-3.9l3.8-5.6l3.8,5.6C369.3,186.4,369.3,188,368.5,189.2z"
		/>
</g>
<path class="st8" d="M269.4,641.4l-123.3-61.5l123.3-61.5c30.3-15.1,66-15.1,96.3,0L489,579.9l-123.3,61.5
	C335.4,656.5,299.8,656.5,269.4,641.4z"/>
<g>
	<g>
		<path class="st3" d="M260.4,571.6h-13.8l0.5,1V601h-10.5v-28.5l0.6-1h-13.9v-9.1h37.1V571.6z"/>
		<path class="st3" d="M306.4,601h-11.8l-5.6-10.2c-1.3-2.3-3-3.4-7.2-3.4h-6.6l1,1V601h-10.5v-38.5h19.9c10.3,0,15.9,4.4,15.9,12
			c0,3.8-2.7,7.6-6.4,9.3v0.1c1.5,0.6,2.9,1.9,3.8,3.6L306.4,601z M285.5,571.6h-10.3l1,1v5.5l-1,1h9.8c4.5,0,5.8-1.5,5.8-3.7
			C290.8,573.2,289.3,571.6,285.5,571.6z"/>
		<path class="st3" d="M354.9,562.5l-18.5,22.8V601h-10.5v-15.7l-18.5-22.8h13.2l8.4,10.7l2.2,3.8h0.1l2.2-3.8l8.5-10.7H354.9z"/>
		<path class="st3" d="M396.2,588.4h-11l1,1V601h-10.5v-38.5h20.6c9.9,0,15.7,5.3,15.7,12.9C411.9,582.8,406.1,588.4,396.2,588.4z
			 M396.2,571.6h-11l1,1v5.8l-1,1h11c4,0,5.1-1.6,5.1-3.8C401.2,573.1,400.1,571.6,396.2,571.6z"/>
	</g>
	<path class="st4" d="M366.1,567.8l-3.7,5.3l-3.7-5.3c-0.8-1.1-0.8-2.6,0-3.8l3.7-5.3l3.7,5.3C366.9,565.2,366.9,566.7,366.1,567.8z
		"/>
</g>
<rect x="741.7" y="91.3" class="st9" width="152" height="145.8"/>
<rect x="741.7" y="244.5" class="st10" width="152" height="145.8"/>
<rect x="910.7" y="91.3" class="st4" width="152" height="145.8"/>
<rect x="910.7" y="244.5" class="st11" width="152" height="145.8"/>
</svg>
