<?xml version="1.0" encoding="utf-8"?>
<!-- Generator: Adobe Illustrator 23.0.6, SVG Export Plug-In . SVG Version: 6.00 Build 0)  -->
<svg version="1.1" id="Calque_1" xmlns="http://www.w3.org/2000/svg" xmlns:xlink="http://www.w3.org/1999/xlink" x="0px" y="0px"
	 viewBox="0 0 1366 768" style="enable-background:new 0 0 1366 768;" xml:space="preserve">
<style type="text/css">
	.st0{fill:#052313;}
	.st1{fill:#1D1D1B;}
	.st2{fill:none;stroke:#1D1D1B;stroke-width:2;}
	.st3{fill:#FFFFFF;}
	.st4{fill:#FF402B;}
	.st5{fill:#012B13;}
	.st6{fill:none;stroke:#1D1D1B;stroke-miterlimit:10;}
	.st7{fill:#002B12;}
	.st8{fill:#003315;}
	.st9{fill:#EDEFED;}
	.st10{fill:#FCE0DC;}
</style>
<path class="st0" d="M774.71,1200.74h325.75c35.11,0,63.57-31.76,63.57-70.95c0-39.18-28.46-70.95-63.57-70.95H774.71
	c-35.11,0-63.57,31.77-63.57,70.95C711.14,1168.97,739.6,1200.74,774.71,1200.74"/>
<path class="st1" d="M1585.91,155.97h-1.37v-2.22h1.37c0.99,0,1.43,0.36,1.43,1.11C1587.34,155.61,1586.9,155.97,1585.91,155.97
	 M1586.41,151.52h-4.92v9.9h3.06v-3.29h1.86c2.61,0,4-1.15,4-3.24C1590.41,152.67,1589.02,151.52,1586.41,151.52 M1573.1,151.52
	h-3.05l-1.21,2.47l-0.72,1.73l-0.73-1.73l-1.2-2.47h-3.11l3.48,6.39v3.51h3.07v-3.51L1573.1,151.52z M1555.73,153.75h1.49
	c0.99,0,1.38,0.32,1.38,1.08c0,0.77-0.39,1.07-1.38,1.07h-1.49V153.75z M1558.9,161.41h3.34l-2.41-3.76
	c1.21-0.48,1.84-1.45,1.84-2.89c0-2.13-1.35-3.24-3.87-3.24h-5.07v9.9h3v-3.43h1.25L1558.9,161.41z M1550.12,151.52h-9.39v2.29h3.18
	v7.6h3.06v-7.6h3.15V151.52z"/>
<polyline class="st2" points="1576.19,156.62 1577.68,154.34 1576.19,152.06 "/>
<g>
	<path class="st3" d="M1062.5,1131.02h-8.69v-14.14h8.69c6.3,0,9.07,2.29,9.07,7.07C1071.58,1128.73,1068.8,1131.02,1062.5,1131.02
		 M1065.65,1102.67h-31.3v62.98h19.46v-20.9h11.84c16.61,0,25.48-7.34,25.48-20.61C1091.13,1110.01,1082.26,1102.67,1065.65,1102.67
		 M989.99,1102.67h-19.38l-7.73,15.74l-4.57,10.98l-4.68-10.98l-7.63-15.74h-19.76l22.14,40.65v22.33h19.55v-22.33L989.99,1102.67z
		 M879.46,1116.88h9.46c6.3,0,8.79,2,8.79,6.88s-2.49,6.78-8.79,6.78h-9.46V1116.88z M899.62,1165.65h21.27l-15.36-23.96
		c7.72-3.05,11.73-9.25,11.73-18.41c0-13.55-8.58-20.61-24.62-20.61h-32.25v62.98h19.08v-21.86h7.93L899.62,1165.65z
		 M843.77,1102.67h-59.74v14.59h20.23v48.39h19.46v-48.39h20.04V1102.67z"/>
	<g>
		<polygon class="st4" points="1008.79,1123.95 993.57,1123.95 1002.79,1108.94 993.57,1093.92 1008.81,1093.93 1018,1108.94 		"/>
	</g>
</g>
<path class="st0" d="M774.71,1022.88h325.75c35.11,0,63.57-31.76,63.57-70.95s-28.46-70.95-63.57-70.95H774.71
	c-35.11,0-63.57,31.77-63.57,70.95S739.6,1022.88,774.71,1022.88"/>
<path class="st5" d="M45.8-568.45h2511.22c29.33,0,53.11-28.54,53.11-63.75c0-35.21-23.78-63.75-53.11-63.75H45.8
	c-29.33,0-53.11,28.54-53.11,63.75C-7.32-596.99,16.46-568.45,45.8-568.45"/>
<g>
	<path class="st3" d="M1062.5,953.16h-8.69v-14.14h8.69c6.3,0,9.07,2.29,9.07,7.07C1071.58,950.87,1068.8,953.16,1062.5,953.16
		 M1065.65,924.82h-31.3v62.98h19.46v-20.9h11.84c16.61,0,25.48-7.34,25.48-20.61C1091.13,932.16,1082.26,924.82,1065.65,924.82
		 M989.99,924.82h-19.38l-7.73,15.74l-4.57,10.98l-4.68-10.98L946,924.82h-19.76l22.14,40.65v22.33h19.55v-22.33L989.99,924.82z
		 M879.46,939.03h9.46c6.3,0,8.79,2,8.79,6.88s-2.49,6.78-8.79,6.78h-9.46V939.03z M899.62,987.8h21.27l-15.36-23.96
		c7.72-3.05,11.73-9.25,11.73-18.41c0-13.55-8.58-20.61-24.62-20.61h-32.25v62.98h19.08v-21.86h7.93L899.62,987.8z M843.77,924.82
		h-59.74v14.59h20.23v48.39h19.46v-48.39h20.04V924.82z"/>
	<g>
		<polygon class="st4" points="1008.79,946.09 993.57,946.1 1002.79,931.08 993.57,916.07 1008.81,916.07 1018,931.08 		"/>
	</g>
</g>
<path class="st6" d="M1328.41,1019.88h325.75c35.11,0,63.57-28.46,63.57-63.57c0-35.11-28.46-63.57-63.57-63.57h-325.75
	c-35.11,0-63.57,28.46-63.57,63.57C1264.84,991.42,1293.3,1019.88,1328.41,1019.88"/>
<g>
	<path class="st1" d="M1616.21,957.54h-8.69V943.4h8.69c6.3,0,9.07,2.29,9.07,7.07C1625.28,955.25,1622.5,957.54,1616.21,957.54
		 M1619.36,929.19h-31.3v62.98h19.46v-20.9h11.84c16.61,0,25.48-7.34,25.48-20.61C1644.83,936.53,1635.96,929.19,1619.36,929.19
		 M1543.69,929.19h-19.38l-7.73,15.74l-4.57,10.98l-4.68-10.98l-7.63-15.74h-19.76l22.14,40.65v22.33h19.55v-22.33L1543.69,929.19z
		 M1433.17,943.4h9.46c6.3,0,8.79,2,8.79,6.88s-2.49,6.78-8.79,6.78h-9.46V943.4z M1453.32,992.17h21.27l-15.36-23.96
		c7.72-3.05,11.73-9.25,11.73-18.41c0-13.55-8.58-20.61-24.62-20.61h-32.25v62.98h19.08v-21.86h7.93L1453.32,992.17z
		 M1397.47,929.19h-59.74v14.59h20.23v48.39h19.46v-48.39h20.04V929.19z"/>
	<g>
		<polygon class="st4" points="1562.49,950.47 1547.27,950.47 1556.49,935.46 1547.27,920.44 1562.51,920.45 1571.7,935.46 		"/>
	</g>
</g>
<rect x="1540.73" y="294.2" style="fill:none;" width="132.59" height="144.64"/>
<text transform="matrix(1 0 0 1 1540.7325 416.3174)" style="font-family:'BluuNext-Bold'; font-size:172px;">‘</text>
<rect x="1709.39" y="237.11" style="fill:none;" width="132.59" height="144.64"/>
<text transform="matrix(1 0 0 1 1709.3948 359.2321)" style="font-family:'BluuNext-Bold'; font-size:172px;">‘</text>
<text transform="matrix(1 0 0 1 271.4943 1021.5852)" style="font-family:'SinkinSans-900XBlack'; font-size:72px;">TRY’P</text>
<path class="st7" d="M444.34,443.33H190.81c-12.5,0-22.64-10.13-22.64-22.64v-60.74c0-12.5,10.13-22.64,22.64-22.64h253.53
	c12.5,0,22.64,10.13,22.64,22.64v60.74C466.97,433.2,456.84,443.33,444.34,443.33z"/>
<g>
	<g>
		<path class="st3" d="M257.67,381.93h-14.49l0.55,1v29.83h-11v-29.83l0.6-1h-14.54v-9.51h38.89V381.93z"/>
		<path class="st3" d="M305.81,412.75h-12.35l-5.88-10.71c-1.34-2.44-3.19-3.59-7.52-3.59h-6.92l1,1v13.29h-11v-40.33h20.81
			c10.76,0,16.68,4.58,16.68,12.55c0,4.03-2.84,7.92-6.72,9.71v0.1c1.54,0.6,3.04,1.99,3.98,3.78L305.81,412.75z M283.95,381.93
			h-10.81l1,1v5.73l-1,1h10.26c4.68,0,6.07-1.59,6.07-3.83C289.48,383.62,287.99,381.93,283.95,381.93z"/>
		<path class="st3" d="M356.65,372.42l-19.37,23.9v16.43h-11.05v-16.43l-19.42-23.9h13.79l8.76,11.25l2.29,3.93h0.1l2.29-3.93
			l8.86-11.25H356.65z"/>
		<path class="st3" d="M399.88,399.5h-11.5l1,1v12.25h-11v-40.33h21.56c10.41,0,16.43,5.53,16.43,13.54
			C416.37,393.68,410.34,399.5,399.88,399.5z M399.93,381.93h-11.55l1,1v6.02l-1,1h11.5c4.13,0,5.33-1.69,5.33-3.98
			C405.21,383.52,404.07,381.93,399.93,381.93z"/>
	</g>
	<path class="st4" d="M368.45,378l-3.83,5.55l-3.83-5.55c-0.82-1.18-0.82-2.75,0-3.93l3.83-5.55l3.83,5.55
		C369.27,375.25,369.27,376.81,368.45,378z"/>
</g>
<rect x="656.14" y="535.56" class="st7" width="432.11" height="153.3"/>
<g>
	<g>
		<path class="st3" d="M785.56,600.06h-20.95l0.79,1.44v43.13h-15.91V601.5l0.86-1.44h-21.03v-13.75h56.24V600.06z"/>
		<path class="st3" d="M855.19,644.64h-17.86l-8.5-15.48c-1.94-3.53-4.61-5.18-10.87-5.18h-10.01l1.44,1.44v19.23h-15.91v-58.33
			h30.1c15.55,0,24.12,6.62,24.12,18.15c0,5.83-4.1,11.45-9.72,14.04v0.14c2.23,0.86,4.39,2.88,5.76,5.47L855.19,644.64z
			 M823.57,600.06h-15.63l1.44,1.44v8.28l-1.44,1.44h14.83c6.77,0,8.78-2.3,8.78-5.54C831.57,602.51,829.41,600.06,823.57,600.06z"
			/>
		<path class="st3" d="M928.7,586.31l-28.01,34.56v23.76H884.7v-23.76l-28.08-34.56h19.95l12.67,16.27l3.31,5.69h0.14l3.31-5.69
			l12.82-16.27H928.7z"/>
		<path class="st3" d="M991.22,625.48h-16.63l1.44,1.44v17.71h-15.91v-58.33h31.18c15.05,0,23.76,7.99,23.76,19.59
			C1015.06,617.06,1006.34,625.48,991.22,625.48z M991.29,600.06h-16.71l1.44,1.44v8.71l-1.44,1.44h16.63c5.98,0,7.7-2.45,7.7-5.76
			C998.93,602.37,997.27,600.06,991.29,600.06z"/>
	</g>
	<path class="st4" d="M945.77,594.38l-5.54,8.02l-5.54-8.02c-1.18-1.71-1.18-3.98,0-5.69l5.54-8.02l5.54,8.02
		C946.95,590.4,946.95,592.67,945.77,594.38z"/>
</g>
<ellipse class="st7" cx="317.57" cy="203.76" rx="135.7" ry="75.93"/>
<g>
	<g>
		<path class="st8" d="M1519.61-167.92h-20.95l0.79,1.44v43.13h-15.91v-43.13l0.86-1.44h-21.03v-13.75h56.24V-167.92z"/>
		<path class="st8" d="M1589.23-123.35h-17.86l-8.5-15.48c-1.94-3.53-4.61-5.18-10.87-5.18H1542l1.44,1.44v19.23h-15.91v-58.33h30.1
			c15.55,0,24.12,6.62,24.12,18.15c0,5.83-4.1,11.45-9.72,14.04v0.14c2.23,0.86,4.39,2.88,5.76,5.47L1589.23-123.35z
			 M1557.62-167.92H1542l1.44,1.44v8.28l-1.44,1.44h14.83c6.77,0,8.78-2.3,8.78-5.54C1565.61-165.47,1563.45-167.92,1557.62-167.92z
			"/>
		<path class="st8" d="M1662.74-181.67l-28.01,34.56v23.76h-15.99v-23.76l-28.08-34.56h19.95l12.67,16.27l3.31,5.69h0.14l3.31-5.69
			l12.82-16.27H1662.74z"/>
		<path class="st8" d="M1725.27-142.5h-16.63l1.44,1.44v17.71h-15.91v-58.33h31.18c15.05,0,23.76,7.99,23.76,19.59
			C1749.1-150.93,1740.39-142.5,1725.27-142.5z M1725.34-167.92h-16.71l1.44,1.44v8.71l-1.44,1.44h16.63c5.98,0,7.7-2.45,7.7-5.76
			C1732.97-165.62,1731.32-167.92,1725.34-167.92z"/>
	</g>
	<path class="st4" d="M1679.82-173.61l-5.54,8.02l-5.54-8.02c-1.18-1.71-1.18-3.98,0-5.69l5.54-8.02l5.54,8.02
		C1681-177.58,1681-175.32,1679.82-173.61z"/>
</g>
<g>
	<g>
		<path class="st3" d="M257.67,193.1h-14.49l0.55,1v29.83h-11V194.1l0.6-1h-14.54v-9.51h38.89V193.1z"/>
		<path class="st3" d="M305.81,223.92h-12.35l-5.88-10.71c-1.34-2.44-3.19-3.59-7.52-3.59h-6.92l1,1v13.29h-11v-40.33h20.81
			c10.76,0,16.68,4.58,16.68,12.55c0,4.03-2.84,7.92-6.72,9.71v0.1c1.54,0.6,3.04,1.99,3.98,3.78L305.81,223.92z M283.95,193.1
			h-10.81l1,1v5.73l-1,1h10.26c4.68,0,6.07-1.59,6.07-3.83C289.48,194.8,287.99,193.1,283.95,193.1z"/>
		<path class="st3" d="M356.65,183.59l-19.37,23.9v16.43h-11.05v-16.43l-19.42-23.9h13.79l8.76,11.25l2.29,3.93h0.1l2.29-3.93
			l8.86-11.25H356.65z"/>
		<path class="st3" d="M399.88,210.68h-11.5l1,1v12.25h-11v-40.33h21.56c10.41,0,16.43,5.53,16.43,13.54
			C416.37,204.85,410.34,210.68,399.88,210.68z M399.93,193.1h-11.55l1,1v6.02l-1,1h11.5c4.13,0,5.33-1.69,5.33-3.98
			C405.21,194.7,404.07,193.1,399.93,193.1z"/>
	</g>
	<path class="st4" d="M368.45,189.17l-3.83,5.55l-3.83-5.55c-0.82-1.18-0.82-2.75,0-3.93l3.83-5.55l3.83,5.55
		C369.27,186.42,369.27,187.99,368.45,189.17z"/>
</g>
<path class="st7" d="M269.44,641.38L146.1,579.89l123.34-61.49c30.31-15.11,65.95-15.11,96.26,0l123.34,61.49L365.7,641.38
	C335.4,656.49,299.75,656.49,269.44,641.38z"/>
<g>
	<g>
		<path class="st3" d="M260.38,571.58h-13.83l0.52,0.95v28.48h-10.51v-28.48l0.57-0.95h-13.88v-9.08h37.13V571.58z"/>
		<path class="st3" d="M306.35,601.01h-11.79l-5.61-10.22c-1.28-2.33-3.04-3.42-7.18-3.42h-6.61l0.95,0.95v12.69H265.6V562.5h19.87
			c10.27,0,15.93,4.37,15.93,11.98c0,3.85-2.71,7.56-6.42,9.27v0.1c1.47,0.57,2.9,1.9,3.8,3.61L306.35,601.01z M285.48,571.58
			h-10.32l0.95,0.95V578l-0.95,0.95h9.79c4.47,0,5.8-1.52,5.8-3.66C290.75,573.2,289.33,571.58,285.48,571.58z"/>
		<path class="st3" d="M354.88,562.5l-18.49,22.82v15.69h-10.55v-15.69l-18.54-22.82h13.17l8.37,10.74l2.19,3.76h0.1l2.19-3.76
			l8.46-10.74H354.88z"/>
		<path class="st3" d="M396.16,588.36h-10.98l0.95,0.95v11.69h-10.51V562.5h20.58c9.94,0,15.69,5.28,15.69,12.93
			C411.89,582.8,406.14,588.36,396.16,588.36z M396.21,571.58h-11.03l0.95,0.95v5.75l-0.95,0.95h10.98c3.95,0,5.09-1.62,5.09-3.8
			C401.25,573.1,400.15,571.58,396.21,571.58z"/>
	</g>
	<path class="st4" d="M366.15,567.83l-3.66,5.3l-3.66-5.3c-0.78-1.13-0.78-2.62,0-3.75l3.66-5.3l3.66,5.3
		C366.93,565.2,366.93,566.7,366.15,567.83z"/>
</g>
<rect x="741.7" y="91.31" class="st8" width="152.04" height="145.8"/>
<rect x="741.7" y="244.53" class="st9" width="152.04" height="145.8"/>
<rect x="910.74" y="91.31" class="st4" width="152.04" height="145.8"/>
<rect x="910.74" y="244.53" class="st10" width="152.04" height="145.8"/>
</svg>
